<svg id="Layer_1" enable-background="new 0 0 512 512" height="512" viewBox="0 0 512 512" width="512" xmlns="http://www.w3.org/2000/svg"><path d="m511.86 426.399c0 21.736-17.056 85.28-102.336 85.28-102.336 0-119.392-119.392-230.256-34.112-17.983 13.837-56.86 37.459-93.808 34.112-44.004-3.987-85.28-24.273-85.28-93.808 0-90.908 76.752-85.28 76.752-162.032 0-51.168-76.752-73.383-76.752-127.92 0-51.119 51.011-42.64 119.392-42.64 59.697.001 85.281-85.279 136.448-85.279s85.28 59.696 76.752 136.448-42.64 127.92 25.584 144.976c50.55 12.632 153.504 42.639 153.504 144.975z" fill="#c79a83"/><path d="m511.86 426.399c0 21.736-17.056 85.28-102.336 85.28-102.336 0-119.392-119.392-230.256-34.112-17.983 13.837-56.86 37.459-93.808 34.112-44.004-3.987-85.28-24.273-85.28-93.808 0-90.908 76.752-85.28 76.752-162.032 0-53.849-84.943-75.561-76.155-136.842 7.931 43.034 110.267 25.978 127.323 136.842 14.264 92.717-42.64 102.336-25.584 136.448 34.112 68.224 119.392-59.696 230.256 17.056 64.644 44.754 119.392 93.808 179.088 17.056z" fill="#a07765"/><path d="m511.86 196.495c0 68.024-81.037 40.119-102.336 8.176-33.854-50.787-.398-93.456 34.112-93.456 34.112.001 68.224 17.056 68.224 85.28z" fill="#c79a83"/><g fill="#e0b7a3"><path d="m511.86 196.495c0 2.75-.128 5.351-.394 7.793-24.795 1.023-55.88-15.809-67.829-33.728-14.434-21.661-16.651-41.723-11.811-57.671 3.859-1.098 7.835-1.674 11.811-1.674 34.111.001 68.223 17.056 68.223 85.28z"/><path d="m238.964 68.224s51.168-8.528 34.112 42.64-76.752 68.224-68.224 17.056 25.584-59.696 34.112-59.696z"/><path d="m273.076 162.032s-25.584 119.392 17.056 136.448 93.808 42.64 93.808 42.64-144.976 8.528-153.504-34.112 17.056-119.392 42.64-144.976z"/></g></svg>